<svg width="74" height="75" viewBox="0 0 74 75" fill="none" xmlns="http://www.w3.org/2000/svg">
<path d="M49.387 2.27102C56.5219 5.41742 62.3653 10.1219 67.0282 16.4262C70.5141 21.8637 72.5533 27.6791 73.1749 34.131C73.4881 41.2878 72.2372 47.7088 69.0894 54.1586C65.5038 60.545 61.3236 65.2595 55.0602 69.0258C48.9007 72.4257 43.5357 74.3524 36.4513 74.5943C29.6945 74.3625 23.6097 72.8238 17.7891 69.3095C12.039 65.2998 7.26717 60.5291 3.83818 54.3414C0.552302 46.8153 -0.425986 39.4893 0.278182 31.3014C1.7627 23.4268 5.30917 17.1095 10.3352 11.0068C14.3615 6.66879 18.9091 3.82695 24.3943 1.71375C32.5681 -0.708334 41.3599 -0.598903 49.387 2.27102ZM18.4619 11.8528C13.2765 16.0072 9.95141 20.842 7.39818 26.9814C6.71466 29.0572 6.60288 30.3489 6.61641 32.5024L6.62353 34.45L6.64132 36.4768L6.65129 38.5288C6.65983 40.1992 6.67147 41.8701 6.68618 43.5414L8.82218 42.8214V41.3814L10.034 40.8673C12.0568 39.7225 13.4345 38.3185 15.0636 36.651L16.9824 34.6962L18.9682 32.6514C19.6408 31.9636 20.3139 31.2765 20.9874 30.5901C22.6321 28.9101 24.2731 27.2272 25.9102 25.5414C28.7254 27.9397 31.4709 30.3539 34.054 33.0114L35.5193 34.5133L36.5902 35.6214C40.7055 34.1814 43.0907 31.5786 46.1132 28.5114L47.7294 26.9389L49.2445 25.4125L50.6337 24.0229L51.5422 22.6614C51.4995 21.1264 51.4995 21.1264 50.8302 19.7814L49.4062 18.3414L59.3742 17.6214C57.8185 14.475 56.5668 13.4469 53.8277 11.4676C49.2061 8.39534 44.5959 6.43406 39.063 5.94086C31.4018 5.68526 24.7945 7.45143 18.4619 11.8528ZM60.0862 19.0614L59.3742 29.1414L57.7722 27.2968L55.8142 25.5414C54.4144 25.4982 54.4144 25.4982 52.9662 26.2614C51.1961 27.7525 51.1961 27.7525 49.4176 29.6389L48.4236 30.6534C47.3826 31.7207 46.3455 32.7919 45.3122 33.8668C44.6049 34.5921 43.8977 35.3171 43.1904 36.0419C41.4598 37.8166 39.7344 39.5965 38.0142 41.3814C34.6628 38.5497 31.6147 35.6178 28.6834 32.3389L27.3342 31.3014C25.9785 31.2993 25.9785 31.2993 24.4862 32.0214C23.1465 33.1946 21.8584 34.4268 20.6257 35.7143L19.5364 36.8253C18.3938 37.995 17.255 39.1686 16.1202 40.3461L13.7919 42.73C11.8929 44.6754 9.99895 46.6258 8.11018 48.5814C10.9347 54.6107 13.4075 58.8321 18.924 62.7114C23.0743 65.5396 26.5282 67.7061 31.5763 68.1417C37.6176 68.5225 43.493 68.583 49.1306 66.0947C54.9178 62.8482 59.7466 58.3252 63.271 52.6538C66.0812 47.4172 66.9662 42.2713 67.429 36.3861C67.2582 31.1517 65.9089 25.8949 63.246 21.4014C62.4187 20.0442 62.4187 20.0442 61.5102 19.0614H60.0862Z" fill="#349EDF"/>
<path d="M8.11017 15.4614L8.82217 16.9014L6.68617 18.3414C6.16641 20.1868 6.16641 20.1868 5.97417 21.9414L10.9582 19.7814L10.38 21.2214L9.53417 23.3814L8.4441 25.9238C7.1269 29.4834 7.00373 32.9329 6.90903 36.7014L6.83498 38.7038C6.77707 40.3166 6.72747 41.9291 6.68617 43.5414L7.8567 42.5025C11.0085 39.7079 14.1783 36.9342 17.3662 34.1814V36.3414H15.9422V37.7814L18.0782 38.5014C15.1656 42.0196 12.0762 45.384 8.82217 48.5814C10.7197 52.7862 12.3857 56.3574 15.9422 59.3814L17.3163 60.6126C21.258 63.975 25.0942 66.2675 30.1822 67.3014C36.5831 67.9991 43.1463 68.0128 49.1285 65.3776C54.5632 62.3248 59.1883 58.1704 62.4521 52.7884C63.3272 51.1756 64.1624 49.5491 64.9812 47.9068L65.8491 46.2061C66.5437 44.8404 67.2334 43.4722 67.9182 42.1014L70.7662 42.8214V44.2614H72.1902C71.1848 50.4606 68.8779 55.3494 65.2233 60.4276C60.3247 66.4079 53.8263 70.2966 46.7198 73.101C40.7034 74.883 34.7155 74.8701 28.5802 73.7361C21.3797 71.9073 15.814 68.4268 10.4527 63.2795C5.34975 57.8385 2.35009 51.9885 0.575788 44.7251C-0.532796 37.6331 -0.0771125 30.7643 2.2611 23.9999C3.43946 21.1962 4.76021 18.5401 6.68617 16.1814L8.11017 15.4614Z" fill="#7CDDB4"/>
<path d="M67.9182 42.1014L70.7662 42.8214V44.2614H72.1902C71.1848 50.4606 68.8779 55.3494 65.2233 60.4276C60.3247 66.4079 53.8263 70.2966 46.7198 73.101C39.5507 75.225 32.8557 74.6548 25.7179 72.9095C23.7742 72.3414 23.7742 72.3414 22.3502 71.6214V69.4614H20.9262L21.6382 66.5814L23.0565 66.7391C36.3239 68.2353 36.3239 68.2353 49.1278 65.3783C54.5632 62.3241 59.1883 58.1711 62.4521 52.7884C63.3272 51.1756 64.1624 49.5491 64.9812 47.9068L65.8491 46.2062C66.5437 44.8404 67.2334 43.4722 67.9182 42.1014Z" fill="#50D38E"/>
<path d="M32.8522 0.926793L35.6446 0.940471C38.0142 1.06143 38.0142 1.06143 40.1502 1.78143C40.6348 2.97711 41.1095 4.17711 41.5742 5.38143L43.7102 6.82143L41.6739 6.74583C34.8251 6.59967 28.6507 6.86751 22.3922 10.0449C18.489 12.3964 15.5833 14.974 12.7325 18.533C11.3775 20.1256 10.0048 21.0897 8.11018 21.9414H5.97418V18.3414L8.82218 16.9014L6.68618 15.4614C11.2608 9.80223 15.6531 5.57007 22.3502 2.50143C25.9479 1.23927 29.0515 0.884313 32.8522 0.926793Z" fill="#349EDF"/>
<path d="M53.6782 32.0214C55.0132 32.6068 55.0132 32.6068 56.5262 33.4614C57.9502 35.6214 57.9502 35.6214 58.1253 37.5049C58.1075 39.9385 58.0612 42.3685 57.9943 44.8014L57.9986 47.3502C57.9324 49.7817 57.785 51.9712 57.2382 54.3414C55.8704 56.4777 54.3603 57.9947 52.2542 59.3814L50.1182 60.1014C50.0304 56.6814 49.9651 53.2609 49.9224 49.84C49.9048 48.6769 49.8806 47.5144 49.8497 46.3523C49.8063 44.6769 49.7857 43.0036 49.7707 41.3281L49.7152 39.7614C49.7138 38.2775 49.7138 38.2775 50.1182 35.6214C51.9195 33.465 51.9195 33.465 53.6782 32.0214ZM27.3342 38.5014C30.091 40.1027 32.2989 41.6082 34.3189 44.0958C35.7194 46.7483 35.6176 49.2942 35.5763 52.252L35.478 54.6114C35.4638 55.407 35.451 56.2026 35.4374 57.022C35.3463 61.054 35.3463 61.054 35.1662 62.9814L34.4542 63.7014C33.0081 63.6395 33.0081 63.6395 31.2502 63.4314L29.4922 63.2349L28.0462 62.9814L27.3342 62.2614C27.2731 60.5063 27.2498 58.75 27.2644 56.9939L27.268 55.3984C27.2715 53.7114 27.2808 52.0237 27.2893 50.3368C27.2936 49.1949 27.2969 48.0534 27.2993 46.9125C27.3074 44.1088 27.319 41.3051 27.3342 38.5014ZM46.5582 39.9414V62.2614C43.3898 63.543 41.975 63.8541 38.7262 63.7014C38.5596 60.9424 38.4592 58.1841 38.3702 55.4214L38.2256 53.0699C38.1687 50.7234 38.2171 48.7139 38.7262 46.4214C40.3097 44.0994 43.4104 39.9414 46.5582 39.9414Z" fill="#50D38E"/>
<path d="M59.3742 57.2214V59.3814C55.6276 64.0643 51.0687 67.979 45.4902 70.1562C43.9558 70.6818 42.4207 71.1729 40.8622 71.6214L42.1082 71.9368L46.5582 73.0614C39.8547 74.5396 33.4552 75.0314 26.7503 73.2472C25.2672 72.7533 23.8048 72.1953 22.3502 71.6214V69.4614H20.9262L21.6382 66.5814L23.0565 66.7391C36.3161 68.2274 36.3161 68.2274 49.12 65.3891C52.9818 63.2039 56.2969 60.4211 59.3742 57.2214Z" fill="#50D38E"/>
<path d="M30.8942 0.341447C38.2349 -0.00127274 44.6742 0.172247 51.5422 3.22145C55.7807 5.51969 59.8719 8.06489 62.9342 11.8614C63.9502 13.9682 64.5682 16.0576 65.0702 18.3414C63.2804 17.2629 61.5003 16.168 59.7302 15.0568C58.0142 13.9984 58.0142 13.9984 56.3062 13.3749C53.5436 12.2315 51.0174 10.7138 48.4243 9.22624C46.8145 8.39392 45.4738 7.88129 43.7102 7.54145V6.10145L40.8622 5.38145L40.1502 1.78145L30.8942 1.06145V0.341447Z" fill="#349EDF"/>
<path d="M7.39816 49.3015H8.82216C9.77054 50.7501 9.77055 50.7501 10.825 52.6768C14.0753 58.2892 18.3416 61.7416 23.7742 65.1415C26.1736 66.1768 26.1736 66.1768 28.0462 66.5815V67.3015H21.6382L20.9262 69.4615H22.3502V70.9015C17.9742 69.8805 14.9553 67.3843 11.6702 64.4215C8.23049 60.9431 5.16818 57.3914 3.12616 52.9015L3.83816 50.7415V52.1815H5.26216C6.41916 53.2615 6.41916 53.2615 7.39816 54.3415V49.3015ZM23.0622 39.9415H23.7742V60.1015C20.7147 58.8638 19.6965 58.4138 17.589 56.1868L16.3345 54.8836C15.2302 53.6215 15.2302 53.6215 13.8062 51.4615V48.5815H15.2302V47.1415H16.6542V45.7015H18.0782V44.2615H19.5022V42.8215C21.238 41.2915 21.238 41.2915 23.0622 39.9415Z" fill="#7CDDB4"/>
<path d="M25.9102 24.8215C29.6774 27.9967 33.159 31.3605 36.5902 34.9015L38.0142 36.3415L36.5902 39.2215C34.5019 38.5274 33.1476 37.8931 31.5364 36.3559C30.6003 35.2923 29.6659 34.2272 28.7332 33.1605L27.3342 32.0215C25.8596 31.9185 25.8596 31.9185 24.4862 32.7415C22.9596 34.1952 21.604 35.7503 20.2142 37.3372L18.7902 38.5015C17.1882 38.3157 17.1882 38.3157 15.9422 37.7815V36.3415H17.3662L17.4744 34.8028C18.1536 32.483 19.2273 31.282 20.9247 29.6095L22.0383 28.5561L23.1611 27.461C24.0723 26.5757 24.9887 25.6958 25.9102 24.8215Z" fill="#63C7E2"/>
<path d="M16.6542 34.1815L17.3662 36.3415H15.9422V37.7815L18.0782 38.5015C15.7371 41.3426 13.4117 43.9043 10.6912 46.3768C9.21306 47.757 9.21306 47.7571 8.11017 49.3015C7.63812 51.4492 7.79689 52.846 8.11017 55.0615L5.26217 53.6215V52.1815H3.83817C2.70538 48.6729 2.26323 45.8397 2.41417 42.1015L4.55017 41.3815L5.26217 43.5415C6.563 43.4414 6.563 43.4414 8.11017 42.8215C9.84603 41.2475 9.84603 41.2475 11.6702 39.2215L11.6468 39.2339C13.6615 37.1965 13.6615 37.1965 15.6763 35.159L16.6542 34.1815Z" fill="#7CDDB4"/>
<path d="M13.8062 7.54144C16.4107 8.20024 17.9906 8.98504 20.2142 10.4214V8.98144L23.0622 9.70144L21.4744 10.8102C16.966 13.9221 16.966 13.9221 13.1832 17.8468C11.6239 19.8412 10.3694 20.8593 8.11018 21.9414H5.97418V18.3414L8.82218 16.9014L6.68618 15.4614L13.8062 7.54144Z" fill="#349EDF"/>
<path d="M13.0942 59.3815C16.0774 59.7739 17.7891 60.7473 20.17 62.5768C22.7311 64.4661 24.9169 65.8319 28.0462 66.5815V67.3015H21.6382L20.9262 69.4615H22.3502V70.9015C19.9272 70.139 18.0682 69.455 15.9422 68.0215L15.275 66.2668C14.6413 64.3279 14.6413 64.3279 13.0052 63.1168L11.6702 62.2615L13.0942 59.3815Z" fill="#7CDDB4"/>
<path d="M8.11017 15.4614L8.82217 16.9014L6.68617 18.3414C6.16641 20.1868 6.16641 20.1868 5.97417 21.9414L10.9582 19.7814L10.3352 21.3453C9.8201 22.6533 9.31574 23.9657 8.82217 25.2822L8.11017 27.1607L7.39817 29.0615L6.68617 30.5807L5.26217 31.3007L3.83817 29.8607C2.36505 29.3977 2.36505 29.3977 0.990173 29.1407C2.18135 24.3613 3.62884 20.0889 6.68617 16.1807L8.11017 15.4614Z" fill="#63C7E2"/>
<path d="M43.7102 42.8214H45.8462V62.2614L43.7102 61.5414C42.3268 58.8436 41.5884 56.8578 41.5493 53.8158C41.8462 49.9955 42.5133 46.4524 43.7102 42.8214ZM54.3902 63.7014H55.8142V65.1414H57.2382C57.105 66.4374 57.105 66.4374 56.5262 68.0214C53.1734 70.6062 49.3257 72.4825 45.1342 73.0614H42.2862L40.1502 71.6214C41.9757 70.4269 43.5749 69.5017 45.6682 68.8768C48.4521 67.8472 50.5938 66.3251 52.9996 64.5957L54.3902 63.7014Z" fill="#50D38E"/>
<path d="M30.8942 68.7414C32.2327 68.578 32.2327 68.578 33.8369 68.601L35.5749 68.6154L37.3912 68.6514L39.2239 68.6709C40.7191 68.6881 42.2143 68.7141 43.7102 68.7414V70.1814L40.8622 71.6214L42.1082 71.9368L43.7102 72.3414L45.2339 72.7266L46.5582 73.0614C39.498 74.7405 39.498 74.7405 36.0953 74.1918C33.8326 73.4596 32.1224 72.8238 30.363 71.1801L29.4702 70.1814L30.8942 68.7414Z" fill="#50D38E"/>
<path d="M30.1822 3.94147L29.4702 4.66147L32.3182 6.10147L30.9668 6.36571L29.2032 6.73147L27.4516 7.08571C25.777 7.44571 25.777 7.44571 24.4862 8.98147C22.2612 9.07147 22.2612 9.07147 20.2142 8.98147V10.4215C18.8792 10.1515 18.8792 10.1515 17.3662 9.70147L15.9422 8.26147C17.4922 6.44131 18.5929 5.45635 20.8372 4.60243L23.0622 4.07683L25.2872 3.52243C27.2338 3.23659 28.3516 3.28771 30.1822 3.94147Z" fill="#349EDF"/>
<path d="M23.0622 39.9415H23.7742V60.1015L20.2142 58.6615L18.7902 56.5015L23.0622 58.6615V42.8215L19.5022 46.4215L18.2206 47.5159C17.9379 47.8672 17.6567 48.2193 17.3662 48.5815C17.1092 50.2252 17.1092 50.2252 17.233 51.9568L17.2914 53.7201L17.3662 55.0615C15.5862 53.4415 15.5862 53.4415 13.8062 51.4615V48.5815H15.2302V47.1415H16.6542V45.7015H18.0782V44.2615H19.5022V42.8215C21.238 41.2915 21.238 41.2915 23.0622 39.9415ZM27.3342 38.5015C29.6589 39.8003 30.8159 40.5419 32.3182 42.8215L28.7582 41.3815V59.3815H30.1822L30.8942 62.2615L34.4542 62.9815V63.7015C33.4004 63.5997 32.3474 63.4948 31.295 63.3868L29.5172 63.209L28.0462 62.9815L27.3342 62.2615C27.2731 60.5063 27.2498 58.7501 27.2644 56.9939L27.268 55.3984C27.2715 53.7115 27.2808 52.0238 27.2893 50.3368C27.2936 49.1949 27.2969 48.0535 27.2993 46.9125C27.3074 44.1088 27.319 41.3051 27.3342 38.5015Z" fill="#7CDDB4"/>
<path d="M28.0462 29.1414C29.515 29.1868 29.515 29.1868 31.6062 29.8614C33.4054 31.4152 34.9924 33.1396 36.5902 34.9014L38.0142 36.3414L36.5902 39.2214C33.7991 38.2609 32.012 37.0801 29.9152 34.9914L28.3858 33.5118L27.3342 32.0214C27.5285 30.3957 27.5285 30.3957 28.0462 29.1414Z" fill="#349EDF"/>
<path d="M28.7582 41.3814L33.0302 42.8214L34.4542 44.9814L30.1822 43.5414L29.4702 57.2214L31.6062 56.5014V62.2614H33.7422L34.4542 45.7014H35.1662V62.9814H30.8942L30.1822 59.3814H28.7582V41.3814Z" fill="#7CDDB4"/>
<path d="M59.3742 57.2214V59.3814C58.173 60.8834 58.173 60.8834 56.5262 62.5314L54.9242 64.168C50.1111 68.3296 50.1111 68.3296 47.2702 69.4614C44.1815 69.8142 41.1968 69.6421 38.1032 69.4168L35.6446 69.2994C31.3249 69.0532 31.3249 69.0532 29.4702 68.7414L28.0462 67.3014L29.2943 67.3468C39.4674 67.8882 39.4674 67.8882 49.1947 65.3884C52.9968 63.1398 56.3083 60.4089 59.3742 57.2214Z" fill="#50D38E"/>
<path d="M3.83818 29.1414L6.68618 30.5814L6.37503 32.0214C5.8866 34.6537 5.57403 37.2817 5.26218 39.9414L1.70218 39.2214C1.64608 37.947 1.6017 36.672 1.56903 35.3968L1.49356 33.2447L1.70218 31.3014C2.77872 29.9658 2.77872 29.9658 3.83818 29.1414ZM8.82218 55.0614C10.469 55.1968 10.469 55.1968 12.3822 55.7814C13.673 57.6268 13.673 57.6268 14.5182 59.3814L12.3822 60.8214V62.2614C13.5396 63.2578 14.7268 64.2182 15.9422 65.1414L15.2302 67.3014C12.2825 65.0817 12.2825 65.0817 10.9582 63.7014C10.3352 61.6768 10.3352 61.6768 10.2462 60.1014H8.82218V55.0614Z" fill="#7CDDB4"/>
<path d="M16.6542 34.1815L17.3662 36.3415H15.9422V37.7815L18.0782 38.5015L13.8062 43.5415L11.6702 42.1015L10.6912 43.1815L9.53417 44.2615H8.11017C8.29386 42.982 8.29386 42.982 8.82217 41.3815C10.0625 40.0739 10.0625 40.0739 11.5812 38.8168C13.3526 37.3322 15.0543 35.8555 16.6542 34.1815Z" fill="#63C7E2"/>
<path d="M40.1502 2.5014C44.1758 2.25228 46.5795 2.90892 50.1182 4.6614V6.1014H51.5422L50.8302 8.9814L49.4062 7.94677C46.7056 6.52405 44.5966 6.3606 41.5742 6.1014L40.1502 2.5014Z" fill="#349EDF"/>
<path d="M25.9102 24.8214L27.3342 26.2614L26.1131 27.2881L24.531 28.6468L22.954 29.9881C21.4687 31.2726 21.4687 31.2726 20.9262 33.4614L21.6382 35.6214C20.3922 37.1068 20.3922 37.1068 18.7902 38.5014C17.1882 38.3214 17.1882 38.3214 15.9422 37.7814V36.3414H17.3662L17.4744 34.8028C18.1537 32.4829 19.2274 31.282 20.9248 29.6094L22.0383 28.5561L23.1611 27.4609C24.0723 26.5756 24.9887 25.6958 25.9102 24.8214ZM9.53418 14.0214H11.6702V16.9014L13.0942 17.6214C11.537 19.3768 11.537 19.3768 9.53418 21.2214C7.53204 21.8068 7.53204 21.8068 5.97418 21.9414V18.3414L7.35404 17.8014L8.82218 16.9014C9.39534 15.4254 9.39534 15.4254 9.53418 14.0214Z" fill="#63C7E2"/>
<path d="M41.5742 43.5414V45.7014L40.8622 46.4214C40.5916 48.6606 40.5275 50.9193 40.4172 53.1714L40.3061 55.0838L40.2114 56.9234L40.1231 58.6118C40.0797 60.2454 40.0797 60.2454 40.8622 62.2614L42.9982 63.7014H38.7262C38.6478 60.8819 38.5885 58.0618 38.5482 55.2414L38.4756 52.8172L38.4478 50.483L38.4029 48.3345L38.7262 46.4214C40.1673 44.7273 40.1673 44.7273 41.5742 43.5414Z" fill="#7CDDB4"/>
<path d="M3.83817 20.5014H4.55017V26.9814H7.39817C7.13117 28.7368 7.13117 28.7368 6.68617 30.5814L5.26217 31.3014L3.83817 29.8614C2.36505 29.3984 2.36505 29.3984 0.990173 29.1414C1.33003 27.9712 1.67132 26.8012 2.01403 25.6314L2.58933 23.6572C3.12617 21.9414 3.12617 21.9414 3.83817 20.5014Z" fill="#63C7E2"/>
<path d="M18.7902 64.4214C20.3423 64.6158 20.3423 64.6158 22.2612 65.0068C22.8906 65.1292 23.5207 65.253 24.1693 65.3805C25.9102 65.8614 25.9102 65.8614 28.0462 67.3014H21.6382L20.9262 69.4614H22.3502V70.9014L18.0782 69.4614C18.0476 68.0214 18.0497 66.5814 18.0782 65.1414L18.7902 64.4214Z" fill="#50D38E"/>
<path d="M45.8462 39.9415H46.5582V62.2615H45.8462V42.8215L42.2862 44.2615C42.865 42.9115 42.865 42.9115 43.7102 41.3815L45.8462 39.9415Z" fill="#50D38E"/>
<path d="M38.0142 35.6214H40.1502V37.7814L41.5742 38.5014L37.3022 42.1014L34.4542 38.5014H36.5902L38.0142 35.6214ZM13.8062 7.54144C15.4082 7.72144 15.4082 7.72144 16.6542 8.26144C15.364 9.70144 15.364 9.70144 13.8062 11.1414H11.6702L10.9582 14.0214H9.53416V15.4614L6.68616 16.1814C11.772 9.11824 11.772 9.11824 13.8062 7.54144Z" fill="#349EDF"/>
<path d="M10.9582 41.3814L13.0942 42.8214C12.2804 44.9166 11.5278 45.8245 9.80119 47.3214L8.11019 48.5814L7.39819 43.5414L8.77805 43.2714L10.2462 42.8214L10.9582 41.3814Z" fill="#7CDDB4"/>
<path d="M22.3502 70.9014C31.9301 71.6697 31.9301 71.6697 35.8782 73.0614L36.5902 74.5014C31.5243 74.2235 27.0821 73.4999 22.3502 71.6214V70.9014Z" fill="#50D38E"/>
<path d="M10.9582 39.9414C12.7382 40.2114 12.7382 40.2114 14.5182 40.6614H16.6542L13.0942 43.5414L11.6702 42.1014L10.6912 43.1814L9.53417 44.2614H8.11017C8.33303 42.9114 8.33303 42.9114 8.82217 41.3814L10.9582 39.9414ZM8.11017 15.4614L8.82217 16.9014L6.68617 18.3414C6.16641 20.1868 6.16641 20.1868 5.97417 21.9414L10.9582 19.7814L9.53417 23.3814L5.26217 22.6614C4.68403 21.0868 4.68403 21.0868 4.55017 19.0614C6.28603 17.0368 6.28603 17.0368 8.11017 15.4614Z" fill="#63C7E2"/>
<path d="M3.83818 29.1415C5.35118 29.8168 5.35118 29.8168 6.68618 30.5815L5.97418 34.1815L3.83818 32.0215L1.70218 34.1815C1.96918 32.0668 1.96918 32.0668 2.41418 29.8615L3.83818 29.1415ZM25.9102 24.8215L27.3342 26.2615L26.138 27.2882L24.5752 28.6468L23.023 29.9882C21.5015 31.331 21.5015 31.331 20.2142 33.4615H18.7902C19.8418 30.976 21.238 29.3935 23.1512 27.5215L24.714 25.9807L25.9102 24.8215Z" fill="#63C7E2"/>
<path d="M15.2302 47.1414L16.6542 47.8614V55.0614C15.2302 53.4414 15.2302 53.4414 13.8062 51.4614V48.5814H15.2302V47.1414Z" fill="#7CDDB4"/>
<path d="M19.5022 44.9814L18.835 46.1968C18.0333 47.9601 17.7044 49.5578 17.3662 51.4614L16.6542 53.6214L15.9422 52.9014C15.8453 50.2641 15.8247 48.2171 16.6542 45.7014C18.0782 44.9814 18.0782 44.9814 19.5022 44.9814Z" fill="#7CDDB4"/>
<path d="M5.97418 18.3414H9.53418L10.2462 20.5014L8.11018 21.9414H5.97418V18.3414Z" fill="#63C7E2"/>
<path d="M45.8462 39.9415H46.5582V45.7015L45.8462 42.8215L42.2862 44.2615C42.865 42.9115 42.865 42.9115 43.7102 41.3815L45.8462 39.9415Z" fill="#50D38E"/>
<path d="M38.7262 60.8215L42.9982 62.9815V63.7015H38.7262V60.8215Z" fill="#7CDDB4"/>
</svg>
